<svg xmlns="http://www.w3.org/2000/svg" xmlns:xlink="http://www.w3.org/1999/xlink"><symbol id="spectrum-css-icon-AlertMedium"><path d="M10.563 2.206l-9.249 16.55a.5.5 0 00.436.744h18.5a.5.5 0 00.436-.744l-9.251-16.55a.5.5 0 00-.872 0zm1.436 15.044a.25.25 0 01-.25.25h-1.5a.25.25 0 01-.25-.25v-1.5a.25.25 0 01.25-.25h1.5a.25.25 0 01.25.25zm0-3.5a.25.25 0 01-.25.25h-1.5a.25.25 0 01-.25-.25v-6a.25.25 0 01.25-.25h1.5a.25.25 0 01.25.25z" class="spectrum-UIIcon--large"/><path d="M8.564 1.289L.2 16.256A.5.5 0 00.636 17h16.728a.5.5 0 00.436-.744L9.436 1.289a.5.5 0 00-.872 0zM10 14.75a.25.25 0 01-.25.25h-1.5a.25.25 0 01-.25-.25v-1.5a.25.25 0 01.25-.25h1.5a.25.25 0 01.25.25zm0-3a.25.25 0 01-.25.25h-1.5a.25.25 0 01-.25-.25v-6a.25.25 0 01.25-.25h1.5a.25.25 0 01.25.25z" class="spectrum-UIIcon--medium"/></symbol><symbol id="spectrum-css-icon-AlertSmall"><path d="M8.564 1.289L.2 16.256A.5.5 0 00.636 17h16.728a.5.5 0 00.436-.744L9.436 1.289a.5.5 0 00-.872 0zM10 14.75a.25.25 0 01-.25.25h-1.5a.25.25 0 01-.25-.25v-1.5a.25.25 0 01.25-.25h1.5a.25.25 0 01.25.25zm0-3a.25.25 0 01-.25.25h-1.5a.25.25 0 01-.25-.25v-6a.25.25 0 01.25-.25h1.5a.25.25 0 01.25.25z" class="spectrum-UIIcon--large"/><path d="M6.66 1.003L.157 12.643a.389.389 0 00.339.58h13.01a.389.389 0 00.34-.58L7.338 1.004a.389.389 0 00-.678 0zm1.118 10.47a.194.194 0 01-.195.194H6.417a.194.194 0 01-.195-.195v-1.166a.194.194 0 01.195-.195h1.166a.194.194 0 01.195.195zm0-2.334a.194.194 0 01-.195.194H6.417a.194.194 0 01-.195-.194V4.472a.194.194 0 01.195-.194h1.166a.194.194 0 01.195.194z" class="spectrum-UIIcon--medium"/></symbol><symbol id="spectrum-css-icon-Arrow100"><path d="M12.93,6.2266,9.0234,2.32A1.0938,1.0938,0,1,0,7.4766,3.8672l2.039,2.039H1.8442a1.0938,1.0938,0,1,0,0,2.1876H9.5156l-2.039,2.039A1.0938,1.0938,0,0,0,9.0234,11.68L12.93,7.7734A1.0927,1.0927,0,0,0,12.93,6.2266Z" class="spectrum-UIIcon--large"/><path d="M9.6992,4.3867,6.624,1.2617A.8748.8748,0,1,0,5.3765,2.4883l1.61,1.6367H.9248a.875.875,0,0,0,0,1.75h6.062l-1.61,1.6367A.8748.8748,0,1,0,6.624,8.7383l3.0752-3.125A.8742.8742,0,0,0,9.6992,4.3867Z" class="spectrum-UIIcon--medium"/></symbol><symbol id="spectrum-css-icon-Arrow200"><path d="M14.6064,7.1943,10.1475,2.7354A1.1394,1.1394,0,1,0,8.5361,4.3467L11.05,6.86H2.1079a1.14,1.14,0,0,0,0,2.2792H11.05L8.5361,11.6533a1.1394,1.1394,0,1,0,1.6114,1.6113l4.4589-4.4589A1.1387,1.1387,0,0,0,14.6064,7.1943Z" class="spectrum-UIIcon--large"/><path d="M11.2842,5.3555,7.7178,1.7881a.9115.9115,0,1,0-1.2891,1.289L8.44,5.0889H1.2861a.9111.9111,0,1,0,0,1.8222H8.44L6.4287,8.9229a.9115.9115,0,0,0,1.2891,1.289l3.5664-3.5674A.9125.9125,0,0,0,11.2842,5.3555Z" class="spectrum-UIIcon--medium"/></symbol><symbol id="spectrum-css-icon-Arrow300"><path d="M15.3643,7.1611l-5.0831-5.083A1.1863,1.1863,0,0,0,8.6035,3.7559L11.66,6.8135H1.2769a1.1865,1.1865,0,1,0,0,2.373H11.66L8.6035,12.2441a1.1863,1.1863,0,1,0,1.6777,1.6778l5.0831-5.083A1.1855,1.1855,0,0,0,15.3643,7.1611Z" class="spectrum-UIIcon--large"/><path d="M12.8926,6.3291,8.8262,2.2617A.95.95,0,1,0,7.4824,3.6035L9.929,6.0508H1.6211a.9492.9492,0,1,0,0,1.8984H9.929L7.4824,10.3965a.95.95,0,0,0,1.3438,1.3418l4.0664-4.0674A.95.95,0,0,0,12.8926,6.3291Z" class="spectrum-UIIcon--medium"/></symbol><symbol id="spectrum-css-icon-Arrow500"><path d="M20.17,10.0889,13.585,3.5039a1.2886,1.2886,0,0,0-1.8223,1.8223l4.3865,4.3857H2.2759a1.2881,1.2881,0,0,0,0,2.5762H16.1492l-4.3865,4.3857a1.2886,1.2886,0,0,0,1.8223,1.8223l6.5849-6.585A1.2888,1.2888,0,0,0,20.17,10.0889Z" class="spectrum-UIIcon--large"/><path d="M16.3359,8.2715,11.0674,3.0039A1.03,1.03,0,1,0,9.61,4.4609L13.12,7.97H2.021a1.03,1.03,0,0,0,0,2.0606H13.12L9.61,13.5391a1.03,1.03,0,1,0,1.457,1.457l5.2685-5.2676a1.03,1.03,0,0,0,0-1.457Z" class="spectrum-UIIcon--medium"/></symbol><symbol id="spectrum-css-icon-Arrow75"><path d="M11.3252,5.2578,7.9087,1.8408A1.05,1.05,0,0,0,6.4233,3.3252L8.048,4.95H1.4941a1.05,1.05,0,0,0,0,2.1H8.048L6.4233,8.6748a1.05,1.05,0,0,0,1.4854,1.4844l3.4165-3.417A1.0491,1.0491,0,0,0,11.3252,5.2578Z" class="spectrum-UIIcon--large"/><path d="M9.2607,4.4062,6.5273,1.6719A.84.84,0,0,0,5.3389,2.8594L6.64,4.16H1.396a.84.84,0,0,0,0,1.68H6.64L5.3389,7.1406A.84.84,0,0,0,6.5273,8.3281L9.2607,5.5938A.8393.8393,0,0,0,9.2607,4.4062Z" class="spectrum-UIIcon--medium"/></symbol><symbol id="spectrum-css-icon-ArrowDownSmall"><path d="M9.99 7.01a1 1 0 00-1.707-.707L6 8.586V1.01a1 1 0 00-2 0v7.576L1.717 6.303A1 1 0 10.303 7.717l3.99 3.98a1 1 0 001.414 0l3.99-3.98a.997.997 0 00.293-.707z" class="spectrum-UIIcon--large"/><path d="M7.99 6.01a1 1 0 00-1.707-.707L5 6.586V1a1 1 0 00-2 0v5.586L1.717 5.303A1 1 0 10.303 6.717l2.99 2.98a1 1 0 001.414 0l2.99-2.98a.997.997 0 00.293-.707z" class="spectrum-UIIcon--medium"/></symbol><symbol id="spectrum-css-icon-ArrowLeftMedium"><path d="M16.99 6H3.414l4.283-4.283A1 1 0 106.283.303l-5.98 5.99a1 1 0 000 1.414l5.98 5.99a1 1 0 101.414-1.414L3.414 8H16.99a1 1 0 000-2z" class="spectrum-UIIcon--large"/><path d="M12.99 4H3.414l2.283-2.283A1 1 0 104.283.303l-3.98 3.99a1 1 0 000 1.414l3.98 3.99a1 1 0 101.414-1.414L3.414 6h9.576a1 1 0 100-2z" class="spectrum-UIIcon--medium"/></symbol><symbol id="spectrum-css-icon-ArrowUpSmall"><path d="M9.99 4.99a1 1 0 01-1.707.707L6 3.414v7.576a1 1 0 01-2 0V3.414L1.717 5.697A1 1 0 11.303 4.283l3.99-3.98a1 1 0 011.414 0l3.99 3.98a.997.997 0 01.293.707z" class="spectrum-UIIcon--large"/><path d="M7.99 3.99a1 1 0 01-1.707.707L5 3.414V9a1 1 0 01-2 0V3.414L1.717 4.697A1 1 0 11.303 3.283l2.99-2.98a1 1 0 011.414 0l2.99 2.98a.997.997 0 01.293.707z" class="spectrum-UIIcon--medium"/></symbol><symbol id="spectrum-css-icon-Asterisk"><path d="M7.867 7.872c.061.062.103.145 0 .228l-1.283.827c-.104.061-.145.02-.186-.083L4.804 6.07l-2.09 2.297c-.021.042-.083.083-.145 0l-.994-1.035c-.103-.062-.082-.124 0-.186l2.36-1.966-2.691-1.014c-.042 0-.104-.083-.062-.186l.703-1.41a.11.11 0 01.187-.04L4.43 4.06l.145-3.02A.109.109 0 014.7.917l1.718.227c.104 0 .124.042.104.145l-.808 2.96 2.734-.828c.061-.042.124-.042.165.082l.27 1.532c.02.103 0 .145-.084.145l-2.856.227z" class="spectrum-UIIcon--large"/><path d="M6.573 6.558c.056.055.092.13 0 .204l-1.148.74c-.093.056-.13.02-.167-.073L3.832 4.947l-1.87 2.055c-.02.037-.075.074-.13 0l-.889-.926c-.092-.055-.074-.111 0-.167l2.111-1.76-2.408-.906c-.037 0-.092-.074-.055-.167l.63-1.259a.097.097 0 01.166-.036l2.111 1.37.13-2.704a.097.097 0 01.111-.11L5.277.54c.092 0 .11.037.092.13l-.722 2.647 2.444-.74c.056-.038.111-.038.148.073l.241 1.37c.019.093 0 .13-.074.13l-2.556.204z" class="spectrum-UIIcon--medium"/></symbol><symbol id="spectrum-css-icon-Asterisk100"><path d="M8.176,8.281c.069.07.115.163,0,.255l-1.437.927c-.115.07-.161.024-.208-.092l-1.783-3.1L2.409,8.842c-.024.045-.093.091-.161,0L1.136,7.678c-.116-.069-.093-.139,0-.208l2.639-2.2L.765,4.136c-.046,0-.115-.092-.07-.209l.788-1.5739a.1228.1228,0,0,1,.151-.083.1283.1283,0,0,1,.058.038l2.639,1.713L4.494.64a.1221.1221,0,0,1,.1-.139.1724.1724,0,0,1,.038,0l1.922.255c.116,0,.139.0461.116.1631l-.9,3.31,3.057-.927c.069-.0461.139-.0461.185.0919l.3,1.713c.023.1161,0,.162-.093.162l-3.2.255Z" class="spectrum-UIIcon--large"/><path d="M6.575,6.555c.055.056.092.13,0,.2l-1.149.741c-.092.0561-.129.019-.166-.0739L3.834,4.94,1.963,7c-.019.036-.074.073-.129,0L.945,6.073c-.093-.055-.074-.111,0-.166l2.111-1.76L.648,3.24c-.037,0-.092-.074-.056-.167l.63-1.259a.0969.0969,0,0,1,.167-.0359L3.5,3.1481l.13-2.7A.1.1,0,0,1,3.711.337a.15.15,0,0,1,.03,0l1.537.2c.093,0,.111.037.093.13L4.648,3.314l2.445-.741c.055-.037.111-.037.148.074l.241,1.37c.018.093,0,.13-.074.13l-2.556.2Z" class="spectrum-UIIcon--medium"/></symbol><symbol id="spectrum-css-icon-Asterisk200"><path d="M9.575,9.696c.077.079.129.183,0,.287L7.96,11.025c-.129.079-.182.027-.234-.1L5.72,7.433,3.087,10.326c-.027.051-.1.1-.182,0l-1.251-1.3c-.131-.077-.1-.156,0-.234l2.97-2.476L1.236,5.031c-.052,0-.129-.1-.079-.235l.886-1.771a.1379.1379,0,0,1,.17-.093.144.144,0,0,1,.065.042l2.97,1.9279.183-3.8A.1369.1369,0,0,1,5.545.946a.1966.1966,0,0,1,.042,0l2.163.2869c.131,0,.156.052.131.183L6.86,5.136,10.3,4.093c.077-.052.156-.052.208.1l.339,1.9279c.025.131,0,.183-.1.183l-3.6.287Z" class="spectrum-UIIcon--large"/><path d="M7.861,7.953c.062.063.1.146,0,.23l-1.293.834c-.1.063-.145.021-.187-.083l-1.6-2.7931L2.676,8.455c-.021.04-.083.0819-.145,0l-1-1.0431c-.1-.062-.083-.125,0-.187l2.375-1.981L1.191,4.218c-.042,0-.1-.083-.063-.188l.707-1.412a.1111.1111,0,0,1,.136-.074.1164.1164,0,0,1,.052.034l2.378,1.54.146-3.043A.11.11,0,0,1,4.638.95a.161.161,0,0,1,.034,0l1.73.23c.1,0,.125.0419.1.1459L5.688,4.305l2.751-.834c.062-.042.125-.042.167.083l.271,1.542c.02.1,0,.146-.083.146l-2.876.23Z" class="spectrum-UIIcon--medium"/></symbol><symbol id="spectrum-css-icon-Asterisk300"><path d="M10.024,10.155c.087.089.146.206,0,.323L8.205,11.651c-.146.089-.2.03-.263-.117L5.685,7.605,2.723,10.859c-.03.057-.117.116-.2,0L1.116,9.392c-.147-.087-.117-.176,0-.263L4.455,6.344.642,4.908c-.059,0-.146-.117-.089-.264l1-1.993a.1559.1559,0,0,1,.192-.1.1629.1629,0,0,1,.073.0479L5.155,4.762,5.361.482A.1551.1551,0,0,1,5.489.3059a.2307.2307,0,0,1,.047,0l2.433.323c.147,0,.176.0591.147.206l-1.144,4.19,3.87-1.1729c.087-.0591.176-.0591.234.117l.381,2.169c.028.147,0,.206-.117.206l-4.046.323Z" class="spectrum-UIIcon--large"/><path d="M8.266,8.324c.07.071.116.164,0,.258L6.812,9.52c-.116.071-.163.024-.21-.094l-1.8-3.141-2.367,2.6c-.024.045-.094.0919-.163,0L1.142,7.718c-.118-.07-.094-.141,0-.21L3.813,5.281.766,4.13c-.047,0-.116-.094-.071-.211l.8-1.593a.124.124,0,0,1,.153-.084.13.13,0,0,1,.058.038L4.375,4.018,4.539.596a.124.124,0,0,1,.1-.14.1856.1856,0,0,1,.038,0L6.622.714c.118,0,.14.047.118.164L5.825,4.227l3.094-.938c.07-.047.14-.047.187.094l.3,1.734c.023.118,0,.164-.094.164l-3.234.258Z" class="spectrum-UIIcon--medium"/></symbol><symbol id="spectrum-css-icon-Asterisk75"><path d="M6.825,6.9026c.061.062.1.144,0,.227l-1.277.824c-.1.062-.143.0209-.185-.082L3.78,5.1116,1.7,7.3976c-.021.04-.082.081-.143,0L.569,6.3666c-.1-.061-.082-.123,0-.185l2.347-1.957L.236,3.2176c-.041,0-.1-.082-.062-.186l.7-1.4a.1089.1089,0,0,1,.135-.073.114.114,0,0,1,.051.033l2.347,1.523L3.552.1086a.109.109,0,0,1,.09-.1229.14.14,0,0,1,.033,0L5.384.2126c.1,0,.123.0411.1.144L4.684,3.3l2.718-.824c.061-.041.123-.041.165.082l.268,1.523c.02.1,0,.144-.082.144l-2.842.227Z" class="spectrum-UIIcon--large"/><path d="M6.26,6.463c.049.05.082.116,0,.181l-1.022.659c-.082.05-.115.017-.148-.066L3.822,5.03,2.16,6.859c-.017.032-.066.065-.115,0l-.79-.824c-.083-.049-.066-.1,0-.148L3.132,4.322.99,3.516c-.033,0-.082-.0659-.05-.148L1.5,2.249a.0869.0869,0,0,1,.1079-.059h0a.09.09,0,0,1,.041.027L3.526,3.435l.116-2.4a.087.087,0,0,1,.0718-.1H3.741l1.367.181c.083,0,.1.033.083.116L4.55,3.581l2.174-.659c.049-.033.1-.033.132.066L7.07,4.206c.016.083,0,.115-.066.115l-2.273.181Z" class="spectrum-UIIcon--medium"/></symbol><symbol id="spectrum-css-icon-Checkmark100"><path d="M5.125,12.625a1.2507,1.2507,0,0,1-.96-.45L1.04,8.4253A1.25,1.25,0,0,1,2.96,6.8247L5.0962,9.3882l5.9214-7.5357a1.25,1.25,0,1,1,1.9648,1.545l-6.8745,8.75a1.2509,1.2509,0,0,1-.9648.4775Z" class="spectrum-UIIcon--large"/><path d="M3.5,9.5a.9988.9988,0,0,1-.7744-.3677l-2.45-3A1,1,0,1,1,1.8242,4.8677L3.4814,6.8965,8.1611.8857A1,1,0,0,1,9.7393,2.1143l-5.45,7A1,1,0,0,1,3.5117,9.5Z" class="spectrum-UIIcon--medium"/></symbol><symbol id="spectrum-css-icon-Checkmark200"><path d="M4.8911,13.2241A1.304,1.304,0,0,1,3.8857,12.75L.3467,8.4507A1.3022,1.3022,0,0,1,2.3574,6.7954L4.8647,9.8413l6.7583-8.647a1.3017,1.3017,0,1,1,2.0508,1.6036L5.917,12.7236a1.3012,1.3012,0,0,1-1.0093.5Z" class="spectrum-UIIcon--large"/><path d="M4.313,10.98a1.0415,1.0415,0,0,1-.8-.375L.6465,7.1646A1.0415,1.0415,0,0,1,2.2471,5.8315l2.042,2.4507L9.7324,1.3535a1.0419,1.0419,0,0,1,1.6387,1.2871L5.1318,10.5815a1.0407,1.0407,0,0,1-.8037.398Z" class="spectrum-UIIcon--medium"/></symbol><symbol id="spectrum-css-icon-Checkmark300"><path d="M5.627,14.8936a1.3573,1.3573,0,0,1-1.042-.4878l-4.1-4.919A1.3565,1.3565,0,0,1,2.5693,7.75l3.0264,3.6314,7.8057-9.9336A1.3562,1.3562,0,0,1,15.5342,3.123L6.6934,14.375a1.3556,1.3556,0,0,1-1.0469.5186Z" class="spectrum-UIIcon--large"/><path d="M5.1016,12.5142a1.0874,1.0874,0,0,1-.834-.39L.9883,8.189a1.0855,1.0855,0,0,1,1.6679-1.39L5.0771,9.7046,11.32,1.7578a1.0853,1.0853,0,0,1,1.707,1.3408L5.9551,12.1a1.0887,1.0887,0,0,1-.8379.4146Z" class="spectrum-UIIcon--medium"/></symbol><symbol id="spectrum-css-icon-Checkmark50"><path d="M4.519,10.6079a1.1515,1.1515,0,0,1-.8847-.4141L1.27,7.3579A1.1521,1.1521,0,0,1,3.04,5.8823L4.4927,7.625,8.9434,1.96a1.1524,1.1524,0,0,1,1.8125,1.4238L5.4248,10.168a1.1528,1.1528,0,0,1-.8892.44Z" class="spectrum-UIIcon--large"/><path d="M3.8149,8.6865a.9211.9211,0,0,1-.708-.3315L1.2158,6.0859a.9215.9215,0,0,1,1.416-1.18L3.7939,6.3,7.3545,1.7686A.9215.9215,0,1,1,8.8037,2.9072L4.54,8.3345a.9212.9212,0,0,1-.7115.352Z" class="spectrum-UIIcon--medium"/></symbol><symbol id="spectrum-css-icon-Checkmark500"><path d="M6.9971,18.48a1.47,1.47,0,0,1-1.13-.5293L.5215,11.5366a1.4713,1.4713,0,1,1,2.26-1.8847l4.1817,5.017L17.18,1.666a1.4717,1.4717,0,1,1,2.3144,1.8184L8.1543,17.917a1.4722,1.4722,0,0,1-1.1357.562Z" class="spectrum-UIIcon--large"/><path d="M5.5967,14.7837a1.1765,1.1765,0,0,1-.9043-.4238L.417,9.229A1.1773,1.1773,0,1,1,2.2256,7.7212l3.3437,4.0132L13.7432,1.3325a1.1774,1.1774,0,0,1,1.8515,1.4551L6.5225,14.3335a1.1777,1.1777,0,0,1-.9092.45Z" class="spectrum-UIIcon--medium"/></symbol><symbol id="spectrum-css-icon-Checkmark75"><path d="M4.333,11.0894a1.2,1.2,0,0,1-.9219-.4322L.69,7.3921A1.2,1.2,0,1,1,2.5337,5.856l1.772,2.1259,5.14-6.542A1.2,1.2,0,1,1,11.332,2.9224L5.2769,10.63a1.2,1.2,0,0,1-.9268.4585Z" class="spectrum-UIIcon--large"/><path d="M3.667,9.0708A.9606.9606,0,0,1,2.93,8.7256L.7529,6.1138a.96.96,0,1,1,1.4746-1.23L3.645,6.585,7.7568,1.3516a.96.96,0,0,1,1.51,1.1865L4.4219,8.7041a.9618.9618,0,0,1-.7412.3667Z" class="spectrum-UIIcon--medium"/></symbol><symbol id="spectrum-css-icon-CheckmarkMedium"><path d="M6 14a1 1 0 01-.789-.385l-4-5a1 1 0 111.577-1.23L6 11.376l7.213-8.99a1 1 0 111.576 1.23l-8 10a1 1 0 01-.789.384z" class="spectrum-UIIcon--large"/><path d="M4.5 10a1.022 1.022 0 01-.799-.384l-2.488-3a1 1 0 011.576-1.233L4.5 7.376l4.712-5.991a1 1 0 111.576 1.23l-5.51 7A.978.978 0 014.5 10z" class="spectrum-UIIcon--medium"/></symbol><symbol id="spectrum-css-icon-CheckmarkSmall"><path d="M4.5 11a.999.999 0 01-.788-.385l-3-4a1 1 0 111.576-1.23L4.5 8.376l5.212-6.99a1 1 0 111.576 1.23l-6 8A.999.999 0 014.5 11z" class="spectrum-UIIcon--large"/><path d="M3.788 9A.999.999 0 013 8.615l-2.288-3a1 1 0 111.576-1.23l1.5 1.991 3.924-4.991a1 1 0 111.576 1.23l-4.712 6A.999.999 0 013.788 9z" class="spectrum-UIIcon--medium"/></symbol><symbol id="spectrum-css-icon-Chevron100"><path d="M4.5,13.25a1.0943,1.0943,0,0,1-.7734-1.8677L8.1094,7,3.7266,2.6177A1.0938,1.0938,0,0,1,5.2734,1.0708L10.43,6.2266a1.0939,1.0939,0,0,1,0,1.5468L5.2734,12.9292A1.0912,1.0912,0,0,1,4.5,13.25Z" class="spectrum-UIIcon--large"/><path d="M3,9.95a.875.875,0,0,1-.6147-1.4976L5.88,5,2.3853,1.5474A.8749.8749,0,0,1,3.6147.3022L7.74,4.3774a.8759.8759,0,0,1,0,1.2452L3.6147,9.6978A.8715.8715,0,0,1,3,9.95Z" class="spectrum-UIIcon--medium"/></symbol><symbol id="spectrum-css-icon-Chevron200"><path d="M5.123,15.0049A1.14,1.14,0,0,1,4.3174,13.06L9.377,8l-5.06-5.06A1.1394,1.1394,0,0,1,5.9287,1.3291l5.8652,5.8652a1.1387,1.1387,0,0,1,0,1.6114L5.9287,14.6709A1.1355,1.1355,0,0,1,5.123,15.0049Z" class="spectrum-UIIcon--large"/><path d="M9.0342,5.3555,4.3428.6636a.9115.9115,0,0,0-1.2891,1.289L7.1006,6,3.0537,10.0474a.9115.9115,0,1,0,1.2891,1.289L9.0342,6.6445a.9116.9116,0,0,0,0-1.289Z" class="spectrum-UIIcon--medium"/></symbol><symbol id="spectrum-css-icon-Chevron300"><path d="M4.6958,15.853a1.187,1.187,0,0,1-.8394-2.0263L9.6836,8,3.8564,2.1733A1.1871,1.1871,0,0,1,5.5352.4946l6.666,6.666a1.1873,1.1873,0,0,1,0,1.6788l-6.666,6.666A1.1834,1.1834,0,0,1,4.6958,15.853Z" class="spectrum-UIIcon--large"/><path d="M10.6388,7a.9466.9466,0,0,0-.2775-.6714l-.0029-.0019-5.33-5.33A.95.95,0,0,0,3.6855,2.3394L8.347,7,3.6855,11.6606a.95.95,0,1,0,1.3428,1.3428l5.33-5.33.0029-.0019A.9466.9466,0,0,0,10.6388,7Z" class="spectrum-UIIcon--medium"/></symbol><symbol id="spectrum-css-icon-Chevron500"><path d="M5.667,19.876a1.2882,1.2882,0,0,1-.9107-2.1988L12.4336,10,4.7563,2.3228A1.2879,1.2879,0,0,1,6.5776.5015L15.166,9.0894a1.2878,1.2878,0,0,1,0,1.8212L6.5776,19.4985A1.2838,1.2838,0,0,1,5.667,19.876Z" class="spectrum-UIIcon--large"/><path d="M12.1328,7.2715l-6.87-6.87a1.03,1.03,0,0,0-1.457,1.457L9.9473,8,3.8057,14.1416a1.03,1.03,0,0,0,1.457,1.457l6.87-6.87A1.03,1.03,0,0,0,12.1328,7.2715Z" class="spectrum-UIIcon--medium"/></symbol><symbol id="spectrum-css-icon-Chevron75"><path d="M3.833,11.5776a1.05,1.05,0,0,1-.7422-1.7924L6.8765,6,3.0908,2.2148A1.05,1.05,0,1,1,4.5752.73L9.1035,5.2573a1.05,1.05,0,0,1,0,1.4854L4.5752,11.2705A1.0469,1.0469,0,0,1,3.833,11.5776Z" class="spectrum-UIIcon--large"/><path d="M7.4824,4.4058l-.0014-.001L3.86.7832A.84.84,0,0,0,2.6719,1.9707L5.7012,5,2.6719,8.0293A.84.84,0,0,0,3.86,9.2168L7.481,5.5952l.0014-.001a.84.84,0,0,0,0-1.1884Z" class="spectrum-UIIcon--medium"/></symbol><symbol id="spectrum-css-icon-ChevronDownMedium"><path d="M11.99 1.51a1 1 0 00-1.707-.707L6 5.086 1.717.803A1 1 0 10.303 2.217l4.99 4.99a1 1 0 001.414 0l4.99-4.99a.997.997 0 00.293-.707z" class="spectrum-UIIcon--large"/><path d="M9.99 1.01A1 1 0 008.283.303L5 3.586 1.717.303A1 1 0 10.303 1.717l3.99 3.98a1 1 0 001.414 0l3.99-3.98a.997.997 0 00.293-.707z" class="spectrum-UIIcon--medium"/></symbol><symbol id="spectrum-css-icon-ChevronDownSmall"><path d="M5 7a.747.747 0 00.53-.22l4.24-4.24a.75.75 0 10-1.06-1.06L5 5.19 1.29 1.48A.75.75 0 10.23 2.54l4.24 4.24A.747.747 0 005 7z" class="spectrum-UIIcon--large"/><path d="M4 5.5a.747.747 0 00.53-.22c.607-.577 1.97-2.038 3.24-3.24A.75.75 0 106.71.98L4 3.69 1.29.98A.75.75 0 10.23 2.04l3.24 3.24A.747.747 0 004 5.5z" class="spectrum-UIIcon--medium"/></symbol><symbol id="spectrum-css-icon-ChevronLeftLarge"><path d="M12.109 17.853l-8.066-7.849 8.066-7.84a1.243 1.243 0 00.381-.894 1.24 1.24 0 00-2.12-.894L1.379 9.108a1.246 1.246 0 00.003 1.79l8.99 8.744a1.247 1.247 0 101.738-1.789z" class="spectrum-UIIcon--large"/><path d="M9.605 13.843L3.55 8l6.056-5.84A1.248 1.248 0 107.876.363L.882 7.1a1.243 1.243 0 00.003 1.797l6.988 6.742a1.248 1.248 0 101.732-1.796z" class="spectrum-UIIcon--medium"/></symbol><symbol id="spectrum-css-icon-ChevronLeftMedium"><path d="M7.197 10.283L2.914 6l4.283-4.283A1 1 0 105.783.303l-4.99 4.99a1 1 0 000 1.414l4.99 4.99a1 1 0 101.414-1.414z" class="spectrum-UIIcon--large"/><path d="M5.697 8.283L2.414 5l3.283-3.283A1 1 0 104.283.303l-3.98 3.99a1 1 0 000 1.414l3.98 3.99a1 1 0 101.414-1.414z" class="spectrum-UIIcon--medium"/></symbol><symbol id="spectrum-css-icon-ChevronRightLarge"><path d="M15 10.004a1.243 1.243 0 00-.38-.894L5.631.364a1.249 1.249 0 10-1.741 1.79l8.066 7.85-8.069 7.847a1.249 1.249 0 001.741 1.79l8.992-8.74a1.246 1.246 0 00.379-.897z" class="spectrum-UIIcon--large"/><path d="M11.5 8a1.241 1.241 0 00-.386-.897L4.128.36a1.248 1.248 0 10-1.733 1.797L8.45 8l-6.058 5.84a1.248 1.248 0 101.733 1.797L11.117 8.9A1.245 1.245 0 0011.5 8z" class="spectrum-UIIcon--medium"/></symbol><symbol id="spectrum-css-icon-ChevronRightMedium"><path d="M7.5 6a.997.997 0 00-.293-.707L2.217.303A1 1 0 10.803 1.717L5.086 6 .803 10.283a1 1 0 101.414 1.414l4.99-4.99A.997.997 0 007.5 6z" class="spectrum-UIIcon--large"/><path d="M5.99 5a.997.997 0 00-.293-.707L1.717.303A1 1 0 10.303 1.717L3.586 5 .303 8.283a1 1 0 101.414 1.414l3.98-3.99A.997.997 0 005.99 5z" class="spectrum-UIIcon--medium"/></symbol><symbol id="spectrum-css-icon-ChevronRightSmall"><path d="M7 5a.747.747 0 00-.22-.53L2.54.23a.75.75 0 10-1.06 1.06L5.19 5 1.48 8.71a.75.75 0 101.06 1.06l4.24-4.24A.747.747 0 007 5z" class="spectrum-UIIcon--large"/><path d="M5.5 4a.747.747 0 00-.22-.53C4.703 2.862 3.242 1.5 2.04.23A.75.75 0 10.98 1.29L3.69 4 .98 6.71a.75.75 0 101.06 1.06l3.24-3.24A.747.747 0 005.5 4z" class="spectrum-UIIcon--medium"/></symbol><symbol id="spectrum-css-icon-ChevronUpSmall"><path d="M5 1a.747.747 0 00-.53.22L.23 5.46a.75.75 0 101.06 1.06L5 2.81l3.71 3.71a.75.75 0 101.06-1.06L5.53 1.22A.747.747 0 005 1z" class="spectrum-UIIcon--large"/><path d="M4 .5a.747.747 0 00-.53.22C2.862 1.297 1.5 2.758.23 3.96a.75.75 0 101.06 1.06L4 2.31l2.71 2.71a.75.75 0 101.06-1.06L4.53.72A.747.747 0 004 .5z" class="spectrum-UIIcon--medium"/></symbol><symbol id="spectrum-css-icon-CornerTriangle"><path d="M5.74.01a.25.25 0 00-.177.073l-5.48 5.48a.25.25 0 00.177.427h5.48a.25.25 0 00.25-.25V.26a.25.25 0 00-.25-.25z" class="spectrum-UIIcon--large"/><path d="M4.74.01a.25.25 0 00-.177.073l-4.48 4.48a.25.25 0 00.177.427h4.48a.25.25 0 00.25-.25V.26a.25.25 0 00-.25-.25z" class="spectrum-UIIcon--medium"/></symbol><symbol id="spectrum-css-icon-CornerTriangle100"><path d="M6.687.75a.311.311,0,0,0-.221.091L.842,6.466a.312.312,0,0,0,.221.533H6.687a.312.312,0,0,0,.312-.312V1.062A.312.312,0,0,0,6.687.75Z" class="spectrum-UIIcon--large"/><path d="M4.7625,0a.2484.2484,0,0,0-.177.073l-4.5,4.5A.25.25,0,0,0,.2625,5h4.5a.25.25,0,0,0,.25-.25V.25A.25.25,0,0,0,4.7625,0Z" class="spectrum-UIIcon--medium"/></symbol><symbol id="spectrum-css-icon-CornerTriangle200"><path d="M7.65.97a.35.35,0,0,0-.249.1L1.07,7.401a.352.352,0,0,0,.249.6H7.65a.352.352,0,0,0,.352-.352h0V1.322A.352.352,0,0,0,7.65.97Z" class="spectrum-UIIcon--large"/><path d="M5.719.37a.2813.2813,0,0,0-.2.082L.452,5.519A.281.281,0,0,0,.652,6H5.719A.281.281,0,0,0,6,5.719H6V.652A.281.281,0,0,0,5.72.37Z" class="spectrum-UIIcon--medium"/></symbol><symbol id="spectrum-css-icon-CornerTriangle300"><path d="M7.605.09a.3937.3937,0,0,0-.28.116L.206,7.325A.4.4,0,0,0,.49,8H7.605a.4.4,0,0,0,.4-.4h0V.49a.4.4,0,0,0-.4-.4Z" class="spectrum-UIIcon--large"/><path d="M6.683.67A.315.315,0,0,0,6.46.763l-5.7,5.7a.316.316,0,0,0,.224.54h5.7A.316.316,0,0,0,7,6.687V.986A.316.316,0,0,0,6.684.67Z" class="spectrum-UIIcon--medium"/></symbol><symbol id="spectrum-css-icon-CornerTriangle75"><path d="M5.718.44a.2773.2773,0,0,0-.2.081l-5,5a.278.278,0,0,0,.2.474h5a.278.278,0,0,0,.278-.278v-5A.2781.2781,0,0,0,5.718.44Z" class="spectrum-UIIcon--large"/><path d="M4.78.558a.2221.2221,0,0,0-.157.065l-4,4a.2221.2221,0,0,0,.157.379h4a.222.222,0,0,0,.222-.222h0v-4A.222.222,0,0,0,4.78.558Z" class="spectrum-UIIcon--medium"/></symbol><symbol id="spectrum-css-icon-Cross100"><path d="M6.5477,5.0005l3.0832-3.083A1.0938,1.0938,0,0,0,8.084.3706L5.0007,3.4537,1.9175.3706A1.0938,1.0938,0,0,0,.3706,1.9175l3.0832,3.083L.3706,8.0835A1.0938,1.0938,0,1,0,1.9175,9.63L5.0007,6.5473,8.084,9.63A1.0938,1.0938,0,1,0,9.6309,8.0835Z" class="spectrum-UIIcon--large"/><path d="M5.2376,4,7.6943,1.5435A.8752.8752,0,1,0,6.4561.3062L4,2.7625,1.5435.3062A.8749.8749,0,0,0,.3062,1.5435L2.7625,4,.3062,6.4565A.8749.8749,0,1,0,1.5435,7.6938L4,5.2375,6.4561,7.6938A.8752.8752,0,1,0,7.6943,6.4565Z" class="spectrum-UIIcon--medium"/></symbol><symbol id="spectrum-css-icon-Cross200"><path d="M7.6113,6l3.6533-3.6533A1.1394,1.1394,0,0,0,9.6533.7354L6,4.3887,2.3467.7354A1.1394,1.1394,0,0,0,.7354,2.3467L4.3887,6,.7354,9.6533a1.1394,1.1394,0,1,0,1.6113,1.6113L6,7.6113l3.6533,3.6533a1.1394,1.1394,0,0,0,1.6113-1.6113Z" class="spectrum-UIIcon--large"/><path d="M6.2894,5,9.2119,2.0776A.9115.9115,0,0,0,7.9229.7886L5,3.711,2.0776.7886a.9115.9115,0,0,0-1.289,1.289L3.7111,5,.7886,7.9224a.9115.9115,0,1,0,1.289,1.289L5,6.289,7.9229,9.2114a.9115.9115,0,0,0,1.289-1.289Z" class="spectrum-UIIcon--medium"/></symbol><symbol id="spectrum-css-icon-Cross300"><path d="M8.6784,7.0005l4.2445-4.2446a1.1864,1.1864,0,0,0-1.6778-1.6778L7.0005,5.3225,2.7563,1.0781A1.1867,1.1867,0,0,0,1.0776,2.7559L5.3224,7.0005,1.0776,11.2451a1.1867,1.1867,0,0,0,1.6787,1.6778L7.0005,8.6785l4.2446,4.2444a1.1864,1.1864,0,0,0,1.6778-1.6778Z" class="spectrum-UIIcon--large"/><path d="M7.3436,6l3.3957-3.3957A.95.95,0,0,0,9.3955,1.2617L6,4.657,2.6045,1.2617A.95.95,0,0,0,1.2617,2.6045L4.657,6,1.2617,9.3955a.95.95,0,0,0,1.3428,1.3438L6,7.3436l3.3953,3.3957a.95.95,0,0,0,1.3438-1.3438Z" class="spectrum-UIIcon--medium"/></symbol><symbol id="spectrum-css-icon-Cross500"><path d="M9.8226,8.0005l5.6745-5.6743A1.2886,1.2886,0,1,0,13.6748.5039L8,6.1785,2.3257.5039A1.2882,1.2882,0,0,0,.5044,2.3262L6.1785,8.0005.5044,13.6748a1.2882,1.2882,0,0,0,1.8213,1.8223L8,9.8225l5.6744,5.6746a1.2886,1.2886,0,1,0,1.8223-1.8223Z" class="spectrum-UIIcon--large"/><path d="M8.4568,7l4.5393-4.5391a1.03,1.03,0,0,0-1.457-1.457L7,5.543,2.46,1.0039a1.03,1.03,0,0,0-1.457,1.457L5.5427,7,1.0034,11.5391a1.03,1.03,0,1,0,1.457,1.457L7,8.457l4.5393,4.5391a1.03,1.03,0,0,0,1.457-1.457Z" class="spectrum-UIIcon--medium"/></symbol><symbol id="spectrum-css-icon-Cross75"><path d="M6.485,5,9.1592,2.3257A1.05,1.05,0,1,0,7.6743.84L5,3.5148,2.3257.84A1.05,1.05,0,0,0,.84,2.3257L3.5146,5,.84,7.6743A1.05,1.05,0,0,0,2.3257,9.16L5,6.4852,7.6743,9.16A1.05,1.05,0,1,0,9.1592,7.6743Z" class="spectrum-UIIcon--large"/><path d="M5.1881,4l2.14-2.14A.84.84,0,1,0,6.1406.6724L4,2.8124,1.86.6724A.84.84,0,0,0,.6724,1.86L2.8124,4,.6724,6.14A.84.84,0,1,0,1.86,7.3276L4,5.1876l2.14,2.14A.84.84,0,1,0,7.3281,6.14Z" class="spectrum-UIIcon--medium"/></symbol><symbol id="spectrum-css-icon-CrossLarge"><path d="M15.697 14.283L9.414 8l6.283-6.283A1 1 0 1014.283.303L8 6.586 1.717.303A1 1 0 10.303 1.717L6.586 8 .303 14.283a1 1 0 101.414 1.414L8 9.414l6.283 6.283a1 1 0 101.414-1.414z" class="spectrum-UIIcon--large"/><path d="M11.697 10.283L7.414 6l4.283-4.283A1 1 0 1010.283.303L6 4.586 1.717.303A1 1 0 10.303 1.717L4.586 6 .303 10.283a1 1 0 101.414 1.414L6 7.414l4.283 4.283a1 1 0 101.414-1.414z" class="spectrum-UIIcon--medium"/></symbol><symbol id="spectrum-css-icon-CrossMedium"><path d="M9.77 8.71L6.06 5l3.71-3.71A.75.75 0 108.71.23L5 3.94 1.29.23A.75.75 0 10.23 1.29L3.94 5 .23 8.71a.75.75 0 101.06 1.06L5 6.06l3.71 3.71a.75.75 0 101.06-1.06z" class="spectrum-UIIcon--large"/><path d="M7.77 6.71L5.06 4l2.71-2.71A.75.75 0 106.71.23L4 2.94 1.29.23A.75.75 0 10.23 1.29L2.94 4 .23 6.71a.75.75 0 101.06 1.06L4 5.06l2.71 2.71a.75.75 0 101.06-1.06z" class="spectrum-UIIcon--medium"/></symbol><symbol id="spectrum-css-icon-CrossSmall"><path d="M9.317 8.433L5.884 5l3.433-3.433a.625.625 0 10-.884-.884L5 4.116 1.567.683a.625.625 0 10-.884.884C.83 1.713 2.77 3.657 4.116 5L.683 8.433a.625.625 0 10.884.884L5 5.884l3.433 3.433a.625.625 0 00.884-.884z" class="spectrum-UIIcon--large"/><path d="M7.317 6.433L4.884 4l2.433-2.433a.625.625 0 10-.884-.884L4 3.116 1.567.683a.625.625 0 10-.884.884L3.116 4 .683 6.433a.625.625 0 10.884.884L4 4.884l2.433 2.433a.625.625 0 00.884-.884z" class="spectrum-UIIcon--medium"/></symbol><symbol id="spectrum-css-icon-Dash100"><path d="M10.375,7.25H1.625a1.25,1.25,0,0,1,0-2.5h8.75a1.25,1.25,0,0,1,0,2.5Z" class="spectrum-UIIcon--large"/><path d="M8.5,6h-7a1,1,0,0,1,0-2h7a1,1,0,0,1,0,2Z" class="spectrum-UIIcon--medium"/></symbol><symbol id="spectrum-css-icon-Dash200"><path d="M12.0264,8.3018H1.9741a1.3018,1.3018,0,0,1,0-2.6036H12.0264a1.3018,1.3018,0,0,1,0,2.6036Z" class="spectrum-UIIcon--large"/><path d="M10.0215,7.0415H1.979a1.0415,1.0415,0,1,1,0-2.083h8.0425a1.0415,1.0415,0,0,1,0,2.083Z" class="spectrum-UIIcon--medium"/></symbol><symbol id="spectrum-css-icon-Dash300"><path d="M13.7627,9.3564H2.2373a1.3564,1.3564,0,0,1,0-2.7128H13.7627a1.3564,1.3564,0,0,1,0,2.7128Z" class="spectrum-UIIcon--large"/><path d="M10.61,7.085H1.39a1.085,1.085,0,0,1,0-2.17H10.61a1.085,1.085,0,0,1,0,2.17Z" class="spectrum-UIIcon--medium"/></symbol><symbol id="spectrum-css-icon-Dash50"><path d="M8.293,6.1519H1.708a1.1519,1.1519,0,0,1,0-2.3038H8.293a1.1519,1.1519,0,1,1,0,2.3038Z" class="spectrum-UIIcon--large"/><path d="M6.6338,4.9214H1.3662a.9214.9214,0,0,1,0-1.8428H6.6338a.9214.9214,0,1,1,0,1.8428Z" class="spectrum-UIIcon--medium"/></symbol><symbol id="spectrum-css-icon-Dash500"><path d="M17.5391,11.4717H2.4619a1.4717,1.4717,0,0,1,0-2.9434H17.5391a1.4717,1.4717,0,0,1,0,2.9434Z" class="spectrum-UIIcon--large"/><path d="M14.03,9.1777H1.9688a1.1777,1.1777,0,1,1,0-2.3554H14.03a1.1777,1.1777,0,0,1,0,2.3554Z" class="spectrum-UIIcon--medium"/></symbol><symbol id="spectrum-css-icon-Dash75"><path d="M8.75,6.2H1.25a1.2,1.2,0,0,1,0-2.4h7.5a1.2,1.2,0,1,1,0,2.4Z" class="spectrum-UIIcon--large"/><path d="M6.99,4.96H1.01a.96.96,0,0,1,0-1.92H6.99a.96.96,0,0,1,0,1.92Z" class="spectrum-UIIcon--medium"/></symbol><symbol id="spectrum-css-icon-DashSmall"><path d="M10.99 5H1.01a1 1 0 000 2h9.98a1 1 0 100-2z" class="spectrum-UIIcon--large"/><path d="M8 4H2a1 1 0 000 2h6a1 1 0 000-2z" class="spectrum-UIIcon--medium"/></symbol><symbol id="spectrum-css-icon-DoubleGripper"><path d="M19.49 4H.51a.5.5 0 100 1h18.98a.5.5 0 000-1zM.51 1h18.98a.5.5 0 000-1H.51a.5.5 0 000 1z" class="spectrum-UIIcon--large"/><path d="M15.49 3H.51a.5.5 0 100 1h14.98a.5.5 0 100-1zM.51 1h14.98a.5.5 0 000-1H.51a.5.5 0 000 1z" class="spectrum-UIIcon--medium"/></symbol><symbol id="spectrum-css-icon-DoubleGripperNew"><path d="M19.375,1.75H.625A.625.625,0,0,1,.625.5h18.75a.625.625,0,0,1,0,1.25ZM20,4.875a.6256.6256,0,0,0-.625-.625H.625a.625.625,0,0,0,0,1.25h18.75A.6256.6256,0,0,0,20,4.875Z" class="spectrum-UIIcon--large"/><path d="M15.45,1.05H.55a.5.5,0,0,1,0-1h14.9a.5.5,0,0,1,0,1Zm.5,2.4a.5.5,0,0,0-.5-.5H.55a.5.5,0,0,0,0,1h14.9A.5.5,0,0,0,15.95,3.45Z" class="spectrum-UIIcon--medium"/></symbol><symbol id="spectrum-css-icon-FolderBreadcrumb"><path d="M19.5 6l-9.166.004-1.668-1.7A.998.998 0 007.946 4H3a1 1 0 00-1 1v13a.5.5 0 00.5.5h17a.5.5 0 00.5-.5V6.5a.5.5 0 00-.5-.5zm-16-.5h4.237l1.964 2H3.5zm11.544 6.044l-3.5 3.5a.77.77 0 01-1.088 0l-3.5-3.5a.77.77 0 011.088-1.088L11 13.41l2.956-2.955a.77.77 0 011.088 1.088z" class="spectrum-UIIcon--large"/><path d="M16.5 4l-7.166.004-1.652-1.7A1 1 0 006.965 2H2a1 1 0 00-1 1v11.5a.5.5 0 00.5.5h15a.5.5 0 00.5-.5v-10a.5.5 0 00-.5-.5zM2 3h4.965l1.943 2H2zm10.354 5.854l-3 3a.5.5 0 01-.707 0l-3-3a.5.5 0 01.707-.707L9 10.793l2.646-2.646a.5.5 0 01.707.707z" class="spectrum-UIIcon--medium"/></symbol><symbol id="spectrum-css-icon-HelpMedium"><path d="M11 2a9 9 0 109 9 9 9 0 00-9-9zm-.007 14.681a1.145 1.145 0 01-1.227-1.215 1.159 1.159 0 011.115-1.201q.056-.002.112.001a1.159 1.159 0 011.226 1.088q.003.056.001.112a1.127 1.127 0 01-1.227 1.215zm1.981-6.63c-.684.642-1.344 1.215-1.333 1.736a2.275 2.275 0 00.176.732.25.25 0 01-.232.343h-1.26a.3.3 0 01-.228-.069 1.886 1.886 0 01-.421-1.2c0-.816.508-1.336 1.35-2.17.578-.573.911-.937.911-1.475 0-.625-.421-1.059-1.49-1.059a5.337 5.337 0 00-2 .473.249.249 0 01-.347-.23v-1.24a.5.5 0 01.3-.459 6.413 6.413 0 012.434-.5c2.1.006 3.261 1.2 3.261 2.725a3.053 3.053 0 01-1.121 2.393z" class="spectrum-UIIcon--large"/><path d="M9 1a8 8 0 108 8 8 8 0 00-8-8zm1.3 12.3a1.222 1.222 0 01-.3.9 1.223 1.223 0 01-.9.3 1.2 1.2 0 010-2.4c.8 0 1.3.5 1.2 1.2zm.1-4.5c-.4.4-.8.8-.8 1.2a1.135 1.135 0 00.3.8v.1a.098.098 0 01-.096.1H8.4a.229.229 0 01-.2-.1 1.666 1.666 0 01-.4-1.1 2.772 2.772 0 011-1.7 2.772 2.772 0 001-1.7c0-.5-.4-1.1-1.4-1.1a5.018 5.018 0 00-2 .4h-.2V4.3c0-.1 0-.2.1-.2a6.183 6.183 0 012.4-.5c1.9 0 3.1 1.1 3.1 2.7a3.704 3.704 0 01-1.4 2.5z" class="spectrum-UIIcon--medium"/></symbol><symbol id="spectrum-css-icon-HelpSmall"><path d="M9 1a8 8 0 108 8 8 8 0 00-8-8zm.023 13.438a1.345 1.345 0 01-.104-2.688q.052-.002.104 0a1.31 1.31 0 011.397 1.217q.004.059.003.118a1.291 1.291 0 01-1.4 1.353zm1.783-6.409l-.1.1c-.395.414-.842.884-.842 1.175a1.386 1.386 0 00.179.674l.073.139-.057.215a.308.308 0 01-.284.189H8.436a.434.434 0 01-.325-.117 2.056 2.056 0 01-.422-1.262A3.058 3.058 0 018.8 7.071c.1-.11.2-.21.288-.3.314-.325.507-.535.507-.758 0-.154 0-.622-.893-.622a2.958 2.958 0 00-1.58.459.3.3 0 01-.327-.01l-.118-.085-.028-.225V4.081a.44.44 0 01.2-.41A4.135 4.135 0 019 3.119a2.552 2.552 0 012.751 2.636 3.067 3.067 0 01-.944 2.274z" class="spectrum-UIIcon--large"/><path d="M7 .778A6.222 6.222 0 1013.222 7 6.222 6.222 0 007 .778zm.018 10.452a1.046 1.046 0 11-.08-2.091q.04-.002.08 0a1.019 1.019 0 011.087.946q.003.046.002.092a1.004 1.004 0 01-1.09 1.053zm1.387-4.985l-.078.078c-.307.322-.655.687-.655.913a1.078 1.078 0 00.14.525l.056.108-.044.167a.24.24 0 01-.221.147H6.56a.338.338 0 01-.252-.091 1.6 1.6 0 01-.329-.982 2.378 2.378 0 01.864-1.61c.078-.086.156-.164.224-.234.245-.252.395-.416.395-.59 0-.119 0-.483-.695-.483a2.3 2.3 0 00-1.229.357.233.233 0 01-.254-.008l-.092-.066-.022-.175V3.174a.342.342 0 01.156-.319A3.216 3.216 0 017 2.425a1.985 1.985 0 012.14 2.051 2.385 2.385 0 01-.735 1.769z" class="spectrum-UIIcon--medium"/></symbol><symbol id="spectrum-css-icon-InfoMedium"><path d="M11 2a9 9 0 109 9 9 9 0 00-9-9zm-.15 2.65a1.359 1.359 0 011.431 1.283q.004.064.001.129a1.332 1.332 0 01-1.432 1.432 1.353 1.353 0 01-1.432-1.433 1.359 1.359 0 011.304-1.412q.064-.002.128.001zM13.5 16a.5.5 0 01-.5.5H9a.5.5 0 01-.5-.5v-1a.5.5 0 01.5-.5h1v-4H9a.5.5 0 01-.5-.5V9a.5.5 0 01.5-.5h2.5a.5.5 0 01.5.5v5.5h1a.5.5 0 01.5.5z" class="spectrum-UIIcon--large"/><path d="M9 1a8 8 0 108 8 8 8 0 00-8-8zm-.15 2.15a1.359 1.359 0 011.431 1.283q.004.064.001.129A1.332 1.332 0 018.85 5.994a1.353 1.353 0 01-1.432-1.433 1.359 1.359 0 011.304-1.412q.064-.002.128.001zM11 13.5a.5.5 0 01-.5.5h-3a.5.5 0 01-.5-.5v-1a.5.5 0 01.5-.5H8V9h-.5a.5.5 0 01-.5-.5v-1a.5.5 0 01.5-.5h2a.5.5 0 01.5.5V12h.5a.5.5 0 01.5.5z" class="spectrum-UIIcon--medium"/></symbol><symbol id="spectrum-css-icon-InfoSmall"><path d="M9 1a8 8 0 108 8 8 8 0 00-8-8zm-.15 2.15a1.359 1.359 0 011.431 1.283q.004.064.001.129A1.332 1.332 0 018.85 5.994a1.353 1.353 0 01-1.432-1.433 1.359 1.359 0 011.304-1.412q.064-.002.128.001zM11 13.5a.5.5 0 01-.5.5h-3a.5.5 0 01-.5-.5v-1a.5.5 0 01.5-.5H8V9h-.5a.5.5 0 01-.5-.5v-1a.5.5 0 01.5-.5h2a.5.5 0 01.5.5V12h.5a.5.5 0 01.5.5z" class="spectrum-UIIcon--large"/><path d="M7 .778A6.222 6.222 0 1013.222 7 6.222 6.222 0 007 .778zM6.883 2.45a1.057 1.057 0 011.113.998q.003.05.001.1a1.036 1.036 0 01-1.114 1.114A1.052 1.052 0 015.77 3.547 1.057 1.057 0 016.784 2.45q.05-.002.1.001zm1.673 8.05a.389.389 0 01-.39.389H5.834a.389.389 0 01-.389-.389v-.778a.389.389 0 01.39-.389h.388V7h-.389a.389.389 0 01-.389-.389v-.778a.389.389 0 01.39-.389h1.555a.389.389 0 01.389.39v3.5h.389a.389.389 0 01.389.388z" class="spectrum-UIIcon--medium"/></symbol><symbol id="spectrum-css-icon-Magnifier"><path d="M19.77 18.71l-5.464-5.464a7.503 7.503 0 10-1.06 1.06l5.463 5.464a.75.75 0 101.061-1.06zM2.5 8.5a6 6 0 116 6 6.007 6.007 0 01-6-6z" class="spectrum-UIIcon--large"/><path d="M15.77 14.71l-4.534-4.535a6.014 6.014 0 10-1.06 1.06l4.533 4.535a.75.75 0 101.061-1.06zM6.5 11A4.5 4.5 0 1111 6.5 4.505 4.505 0 016.5 11z" class="spectrum-UIIcon--medium"/></symbol><symbol id="spectrum-css-icon-More"><path d="M11 8.95A2.05 2.05 0 118.95 11 2.05 2.05 0 0111 8.95zm6 0A2.05 2.05 0 1114.95 11 2.05 2.05 0 0117 8.95zm-12 0A2.05 2.05 0 112.95 11 2.05 2.05 0 015 8.95z" class="spectrum-UIIcon--large"/><path d="M9 7.1A1.9 1.9 0 117.1 9 1.9 1.9 0 019 7.1zm6 0A1.9 1.9 0 1113.1 9 1.9 1.9 0 0115 7.1zm-12 0A1.9 1.9 0 111.1 9 1.9 1.9 0 013 7.1z" class="spectrum-UIIcon--medium"/></symbol><symbol id="spectrum-css-icon-SingleGripper"><path d="M28.75,3.25H1.25a1.25,1.25,0,0,1,0-2.5h27.5a1.25,1.25,0,0,1,0,2.5Z" class="spectrum-UIIcon--large"/><path d="M23,2H1A1,1,0,0,1,1,0H23a1,1,0,0,1,0,2Z" class="spectrum-UIIcon--medium"/></symbol><symbol id="spectrum-css-icon-SkipLeft"><path d="M9.697 10.283L5.414 6l4.283-4.283A1 1 0 108.283.303l-4.99 4.99a1 1 0 000 1.414l4.99 4.99a1 1 0 101.414-1.414zM1 .01a1 1 0 00-1 1v9.98a1 1 0 002 0V1.01a1 1 0 00-1-1z" class="spectrum-UIIcon--large"/><path d="M8.697 8.283L5.414 5l3.283-3.283A1 1 0 107.283.303l-3.99 3.99a1 1 0 000 1.414l3.99 3.99a1 1 0 101.414-1.414zM1 .01a1 1 0 00-1 1v7.98a1 1 0 002 0V1.01a1 1 0 00-1-1z" class="spectrum-UIIcon--medium"/></symbol><symbol id="spectrum-css-icon-SkipRight"><path d="M9 .01a1 1 0 00-1 1v9.98a1 1 0 102 0V1.01a1 1 0 00-1-1zM7 6a.997.997 0 00-.293-.707L1.717.303A1 1 0 10.303 1.717L4.586 6 .303 10.283a1 1 0 101.414 1.414l4.99-4.99A.997.997 0 007 6z" class="spectrum-UIIcon--large"/><path d="M8 .01a1 1 0 00-1 1v7.98a1 1 0 102 0V1.01a1 1 0 00-1-1zM6 5a.997.997 0 00-.293-.707L1.717.303A1 1 0 10.303 1.717L3.586 5 .303 8.283a1 1 0 101.414 1.414l3.99-3.99A.997.997 0 006 5z" class="spectrum-UIIcon--medium"/></symbol><symbol id="spectrum-css-icon-Star"><path d="M11.361 1.68l2.259 5.975a.257.257 0 00.228.166l6.381.3a.386.386 0 01.223.686L15.467 12.8a.257.257 0 00-.087.268l1.684 6.162a.386.386 0 01-.584.424l-5.34-3.506a.257.257 0 00-.282 0l-5.34 3.506a.386.386 0 01-.584-.424l1.686-6.158a.257.257 0 00-.087-.268L1.548 8.809a.386.386 0 01.223-.686l6.381-.3a.257.257 0 00.228-.166l2.259-5.977a.386.386 0 01.722 0z" class="spectrum-UIIcon--large"/><path d="M9.241.3l2.161 5.715 6.106.289a.255.255 0 01.147.454l-4.77 3.823 1.612 5.9a.255.255 0 01-.386.28L9.002 13.4l-5.11 3.358a.255.255 0 01-.386-.28l1.612-5.9-4.77-3.821A.255.255 0 01.495 6.3l6.107-.285L8.763.3a.255.255 0 01.478 0z" class="spectrum-UIIcon--medium"/></symbol><symbol id="spectrum-css-icon-StarOutline"><path d="M11 4.9l1.231 3.255A1.777 1.777 0 0013.809 9.3l3.476.165-2.715 2.18a1.777 1.777 0 00-.6 1.855l.918 3.357-2.909-1.91a1.777 1.777 0 00-1.951 0l-2.909 1.91.914-3.357a1.778 1.778 0 00-.6-1.856L4.715 9.469 8.191 9.3a1.777 1.777 0 001.578-1.142zm0-3.458a.448.448 0 00-.426.294L8.35 7.621a.26.26 0 01-.231.168l-6.282.3a.455.455 0 00-.263.81l4.907 3.933a.26.26 0 01.088.271l-1.657 6.064a.457.457 0 00.44.577.45.45 0 00.249-.076l5.257-3.452a.26.26 0 01.285 0l5.257 3.451a.45.45 0 00.249.076.457.457 0 00.44-.577L15.43 13.1a.26.26 0 01.088-.271L20.426 8.9a.455.455 0 00-.263-.81l-6.282-.3a.26.26 0 01-.231-.168l-2.224-5.883A.448.448 0 0011 1.445z" class="spectrum-UIIcon--large"/><path d="M9.031 2.541l1.777 4.753 5.11.241-3.987 3.2 1.336 4.913-4.266-2.782-4.282 2.808 1.352-4.937-3.987-3.2 5.1-.245zM9.042.412a.369.369 0 00-.349.239L6.486 6.326l-6.1.293a.375.375 0 00-.217.667l4.762 3.821L3.318 17a.376.376 0 00.362.475.371.371 0 00.2-.063l5.121-3.351 5.095 3.324a.371.371 0 00.2.062.376.376 0 00.363-.475l-1.595-5.866 4.767-3.826a.375.375 0 00-.217-.667l-6.1-.287L9.393.655a.369.369 0 00-.351-.243z" class="spectrum-UIIcon--medium"/></symbol><symbol id="spectrum-css-icon-SuccessMedium"><path d="M11 2a9 9 0 109 9 9 9 0 00-9-9zm5.638 5.609L10.1 15.652a.5.5 0 01-.742.038L5.086 11.5a.5.5 0 010-.707l.707-.707a.5.5 0 01.707 0L9.6 13.1l5.486-6.751a.5.5 0 01.7-.073l.776.631a.5.5 0 01.076.702z" class="spectrum-UIIcon--large"/><path d="M9 1a8 8 0 108 8 8 8 0 00-8-8zm5.333 4.54l-6.324 8.13a.6.6 0 01-.437.23h-.037a.6.6 0 01-.425-.176l-3.893-3.9a.6.6 0 010-.849l.663-.663a.6.6 0 01.848 0L7.4 10.991l5.256-6.754a.6.6 0 01.843-.1l.728.566a.6.6 0 01.106.837z" class="spectrum-UIIcon--medium"/></symbol><symbol id="spectrum-css-icon-SuccessSmall"><path d="M9 1a8 8 0 108 8 8 8 0 00-8-8zm5.333 4.54l-6.324 8.13a.6.6 0 01-.437.23h-.037a.6.6 0 01-.425-.176l-3.893-3.9a.6.6 0 010-.849l.663-.663a.6.6 0 01.848 0L7.4 10.991l5.256-6.754a.6.6 0 01.843-.1l.728.566a.6.6 0 01.106.837z" class="spectrum-UIIcon--large"/><path d="M7 .778A6.222 6.222 0 1013.222 7 6.222 6.222 0 007 .778zm4.148 3.53l-4.919 6.324a.467.467 0 01-.34.18h-.028a.467.467 0 01-.331-.138L2.502 7.641a.467.467 0 010-.66l.516-.516a.467.467 0 01.66 0l2.078 2.084 4.088-5.254a.467.467 0 01.655-.078l.566.44a.467.467 0 01.083.652z" class="spectrum-UIIcon--medium"/></symbol><symbol id="spectrum-css-icon-TripleGripper"><path d="M11.49 8H.51a.5.5 0 100 1h10.98a.5.5 0 100-1zM11.49 4H.51a.5.5 0 100 1h10.98a.5.5 0 000-1zM.51 1h10.98a.5.5 0 000-1H.51a.5.5 0 000 1z" class="spectrum-UIIcon--large"/><path d="M9.49 6H.51a.5.5 0 100 1h8.98a.5.5 0 000-1zM9.49 3H.51a.5.5 0 100 1h8.98a.5.5 0 000-1zM.51 1h8.98a.5.5 0 000-1H.51a.5.5 0 000 1z" class="spectrum-UIIcon--medium"/></symbol><symbol id="spectrum-css-icon-TripleGripperNew"><path d="M12.625,1.25H1.375a.625.625,0,0,1,0-1.25h11.25a.625.625,0,0,1,0,1.25Zm.625,3.125a.6256.6256,0,0,0-.625-.625H1.375a.625.625,0,0,0,0,1.25h11.25A.6256.6256,0,0,0,13.25,4.375Zm0,3.75a.6256.6256,0,0,0-.625-.625H1.375a.625.625,0,0,0,0,1.25h11.25A.6256.6256,0,0,0,13.25,8.125Z" class="spectrum-UIIcon--large"/><path d="M9.45,1.05H.55a.5.5,0,0,1,0-1h8.9a.5.5,0,0,1,0,1Zm.5,2.45a.5.5,0,0,0-.5-.5H.55a.5.5,0,0,0,0,1h8.9A.5.5,0,0,0,9.95,3.5Zm0,3a.5.5,0,0,0-.5-.5H.55a.5.5,0,0,0,0,1h8.9A.5.5,0,0,0,9.95,6.5Z" class="spectrum-UIIcon--medium"/></symbol></svg>