<svg xmlns="http://www.w3.org/2000/svg" xmlns:xlink="http://www.w3.org/1999/xlink"><symbol id="spectrum-css-icon-AlertMedium"><path d="M8.564 1.289L.2 16.256A.5.5 0 00.636 17h16.728a.5.5 0 00.436-.744L9.436 1.289a.5.5 0 00-.872 0zM10 14.75a.25.25 0 01-.25.25h-1.5a.25.25 0 01-.25-.25v-1.5a.25.25 0 01.25-.25h1.5a.25.25 0 01.25.25zm0-3a.25.25 0 01-.25.25h-1.5a.25.25 0 01-.25-.25v-6a.25.25 0 01.25-.25h1.5a.25.25 0 01.25.25z"/></symbol><symbol id="spectrum-css-icon-AlertSmall"><path d="M6.66 1.003L.157 12.643a.389.389 0 00.339.58h13.01a.389.389 0 00.34-.58L7.338 1.004a.389.389 0 00-.678 0zm1.118 10.47a.194.194 0 01-.195.194H6.417a.194.194 0 01-.195-.195v-1.166a.194.194 0 01.195-.195h1.166a.194.194 0 01.195.195zm0-2.334a.194.194 0 01-.195.194H6.417a.194.194 0 01-.195-.194V4.472a.194.194 0 01.195-.194h1.166a.194.194 0 01.195.194z"/></symbol><symbol id="spectrum-css-icon-Arrow100"><path d="M9.6992,4.3867,6.624,1.2617A.8748.8748,0,1,0,5.3765,2.4883l1.61,1.6367H.9248a.875.875,0,0,0,0,1.75h6.062l-1.61,1.6367A.8748.8748,0,1,0,6.624,8.7383l3.0752-3.125A.8742.8742,0,0,0,9.6992,4.3867Z"/></symbol><symbol id="spectrum-css-icon-Arrow200"><path d="M11.2842,5.3555,7.7178,1.7881a.9115.9115,0,1,0-1.2891,1.289L8.44,5.0889H1.2861a.9111.9111,0,1,0,0,1.8222H8.44L6.4287,8.9229a.9115.9115,0,0,0,1.2891,1.289l3.5664-3.5674A.9125.9125,0,0,0,11.2842,5.3555Z"/></symbol><symbol id="spectrum-css-icon-Arrow300"><path d="M12.8926,6.3291,8.8262,2.2617A.95.95,0,1,0,7.4824,3.6035L9.929,6.0508H1.6211a.9492.9492,0,1,0,0,1.8984H9.929L7.4824,10.3965a.95.95,0,0,0,1.3438,1.3418l4.0664-4.0674A.95.95,0,0,0,12.8926,6.3291Z"/></symbol><symbol id="spectrum-css-icon-Arrow500"><path d="M16.3359,8.2715,11.0674,3.0039A1.03,1.03,0,1,0,9.61,4.4609L13.12,7.97H2.021a1.03,1.03,0,0,0,0,2.0606H13.12L9.61,13.5391a1.03,1.03,0,1,0,1.457,1.457l5.2685-5.2676a1.03,1.03,0,0,0,0-1.457Z"/></symbol><symbol id="spectrum-css-icon-Arrow75"><path d="M9.2607,4.4062,6.5273,1.6719A.84.84,0,0,0,5.3389,2.8594L6.64,4.16H1.396a.84.84,0,0,0,0,1.68H6.64L5.3389,7.1406A.84.84,0,0,0,6.5273,8.3281L9.2607,5.5938A.8393.8393,0,0,0,9.2607,4.4062Z"/></symbol><symbol id="spectrum-css-icon-ArrowDownSmall"><path d="M7.99 6.01a1 1 0 00-1.707-.707L5 6.586V1a1 1 0 00-2 0v5.586L1.717 5.303A1 1 0 10.303 6.717l2.99 2.98a1 1 0 001.414 0l2.99-2.98a.997.997 0 00.293-.707z"/></symbol><symbol id="spectrum-css-icon-ArrowLeftMedium"><path d="M12.99 4H3.414l2.283-2.283A1 1 0 104.283.303l-3.98 3.99a1 1 0 000 1.414l3.98 3.99a1 1 0 101.414-1.414L3.414 6h9.576a1 1 0 100-2z"/></symbol><symbol id="spectrum-css-icon-ArrowUpSmall"><path d="M7.99 3.99a1 1 0 01-1.707.707L5 3.414V9a1 1 0 01-2 0V3.414L1.717 4.697A1 1 0 11.303 3.283l2.99-2.98a1 1 0 011.414 0l2.99 2.98a.997.997 0 01.293.707z"/></symbol><symbol id="spectrum-css-icon-Asterisk"><path d="M6.573 6.558c.056.055.092.13 0 .204l-1.148.74c-.093.056-.13.02-.167-.073L3.832 4.947l-1.87 2.055c-.02.037-.075.074-.13 0l-.889-.926c-.092-.055-.074-.111 0-.167l2.111-1.76-2.408-.906c-.037 0-.092-.074-.055-.167l.63-1.259a.097.097 0 01.166-.036l2.111 1.37.13-2.704a.097.097 0 01.111-.11L5.277.54c.092 0 .11.037.092.13l-.722 2.647 2.444-.74c.056-.038.111-.038.148.073l.241 1.37c.019.093 0 .13-.074.13l-2.556.204z"/></symbol><symbol id="spectrum-css-icon-Asterisk100"><path d="M6.575,6.555c.055.056.092.13,0,.2l-1.149.741c-.092.0561-.129.019-.166-.0739L3.834,4.94,1.963,7c-.019.036-.074.073-.129,0L.945,6.073c-.093-.055-.074-.111,0-.166l2.111-1.76L.648,3.24c-.037,0-.092-.074-.056-.167l.63-1.259a.0969.0969,0,0,1,.167-.0359L3.5,3.1481l.13-2.7A.1.1,0,0,1,3.711.337a.15.15,0,0,1,.03,0l1.537.2c.093,0,.111.037.093.13L4.648,3.314l2.445-.741c.055-.037.111-.037.148.074l.241,1.37c.018.093,0,.13-.074.13l-2.556.2Z"/></symbol><symbol id="spectrum-css-icon-Asterisk200"><path d="M7.861,7.953c.062.063.1.146,0,.23l-1.293.834c-.1.063-.145.021-.187-.083l-1.6-2.7931L2.676,8.455c-.021.04-.083.0819-.145,0l-1-1.0431c-.1-.062-.083-.125,0-.187l2.375-1.981L1.191,4.218c-.042,0-.1-.083-.063-.188l.707-1.412a.1111.1111,0,0,1,.136-.074.1164.1164,0,0,1,.052.034l2.378,1.54.146-3.043A.11.11,0,0,1,4.638.95a.161.161,0,0,1,.034,0l1.73.23c.1,0,.125.0419.1.1459L5.688,4.305l2.751-.834c.062-.042.125-.042.167.083l.271,1.542c.02.1,0,.146-.083.146l-2.876.23Z"/></symbol><symbol id="spectrum-css-icon-Asterisk300"><path d="M8.266,8.324c.07.071.116.164,0,.258L6.812,9.52c-.116.071-.163.024-.21-.094l-1.8-3.141-2.367,2.6c-.024.045-.094.0919-.163,0L1.142,7.718c-.118-.07-.094-.141,0-.21L3.813,5.281.766,4.13c-.047,0-.116-.094-.071-.211l.8-1.593a.124.124,0,0,1,.153-.084.13.13,0,0,1,.058.038L4.375,4.018,4.539.596a.124.124,0,0,1,.1-.14.1856.1856,0,0,1,.038,0L6.622.714c.118,0,.14.047.118.164L5.825,4.227l3.094-.938c.07-.047.14-.047.187.094l.3,1.734c.023.118,0,.164-.094.164l-3.234.258Z"/></symbol><symbol id="spectrum-css-icon-Asterisk75"><path d="M6.26,6.463c.049.05.082.116,0,.181l-1.022.659c-.082.05-.115.017-.148-.066L3.822,5.03,2.16,6.859c-.017.032-.066.065-.115,0l-.79-.824c-.083-.049-.066-.1,0-.148L3.132,4.322.99,3.516c-.033,0-.082-.0659-.05-.148L1.5,2.249a.0869.0869,0,0,1,.1079-.059h0a.09.09,0,0,1,.041.027L3.526,3.435l.116-2.4a.087.087,0,0,1,.0718-.1H3.741l1.367.181c.083,0,.1.033.083.116L4.55,3.581l2.174-.659c.049-.033.1-.033.132.066L7.07,4.206c.016.083,0,.115-.066.115l-2.273.181Z"/></symbol><symbol id="spectrum-css-icon-Checkmark100"><path d="M3.5,9.5a.9988.9988,0,0,1-.7744-.3677l-2.45-3A1,1,0,1,1,1.8242,4.8677L3.4814,6.8965,8.1611.8857A1,1,0,0,1,9.7393,2.1143l-5.45,7A1,1,0,0,1,3.5117,9.5Z"/></symbol><symbol id="spectrum-css-icon-Checkmark200"><path d="M4.313,10.98a1.0415,1.0415,0,0,1-.8-.375L.6465,7.1646A1.0415,1.0415,0,0,1,2.2471,5.8315l2.042,2.4507L9.7324,1.3535a1.0419,1.0419,0,0,1,1.6387,1.2871L5.1318,10.5815a1.0407,1.0407,0,0,1-.8037.398Z"/></symbol><symbol id="spectrum-css-icon-Checkmark300"><path d="M5.1016,12.5142a1.0874,1.0874,0,0,1-.834-.39L.9883,8.189a1.0855,1.0855,0,0,1,1.6679-1.39L5.0771,9.7046,11.32,1.7578a1.0853,1.0853,0,0,1,1.707,1.3408L5.9551,12.1a1.0887,1.0887,0,0,1-.8379.4146Z"/></symbol><symbol id="spectrum-css-icon-Checkmark50"><path d="M3.8149,8.6865a.9211.9211,0,0,1-.708-.3315L1.2158,6.0859a.9215.9215,0,0,1,1.416-1.18L3.7939,6.3,7.3545,1.7686A.9215.9215,0,1,1,8.8037,2.9072L4.54,8.3345a.9212.9212,0,0,1-.7115.352Z"/></symbol><symbol id="spectrum-css-icon-Checkmark500"><path d="M5.5967,14.7837a1.1765,1.1765,0,0,1-.9043-.4238L.417,9.229A1.1773,1.1773,0,1,1,2.2256,7.7212l3.3437,4.0132L13.7432,1.3325a1.1774,1.1774,0,0,1,1.8515,1.4551L6.5225,14.3335a1.1777,1.1777,0,0,1-.9092.45Z"/></symbol><symbol id="spectrum-css-icon-Checkmark75"><path d="M3.667,9.0708A.9606.9606,0,0,1,2.93,8.7256L.7529,6.1138a.96.96,0,1,1,1.4746-1.23L3.645,6.585,7.7568,1.3516a.96.96,0,0,1,1.51,1.1865L4.4219,8.7041a.9618.9618,0,0,1-.7412.3667Z"/></symbol><symbol id="spectrum-css-icon-CheckmarkMedium"><path d="M4.5 10a1.022 1.022 0 01-.799-.384l-2.488-3a1 1 0 011.576-1.233L4.5 7.376l4.712-5.991a1 1 0 111.576 1.23l-5.51 7A.978.978 0 014.5 10z"/></symbol><symbol id="spectrum-css-icon-CheckmarkSmall"><path d="M3.788 9A.999.999 0 013 8.615l-2.288-3a1 1 0 111.576-1.23l1.5 1.991 3.924-4.991a1 1 0 111.576 1.23l-4.712 6A.999.999 0 013.788 9z"/></symbol><symbol id="spectrum-css-icon-Chevron100"><path d="M3,9.95a.875.875,0,0,1-.6147-1.4976L5.88,5,2.3853,1.5474A.8749.8749,0,0,1,3.6147.3022L7.74,4.3774a.8759.8759,0,0,1,0,1.2452L3.6147,9.6978A.8715.8715,0,0,1,3,9.95Z"/></symbol><symbol id="spectrum-css-icon-Chevron200"><path d="M9.0342,5.3555,4.3428.6636a.9115.9115,0,0,0-1.2891,1.289L7.1006,6,3.0537,10.0474a.9115.9115,0,1,0,1.2891,1.289L9.0342,6.6445a.9116.9116,0,0,0,0-1.289Z"/></symbol><symbol id="spectrum-css-icon-Chevron300"><path d="M10.6388,7a.9466.9466,0,0,0-.2775-.6714l-.0029-.0019-5.33-5.33A.95.95,0,0,0,3.6855,2.3394L8.347,7,3.6855,11.6606a.95.95,0,1,0,1.3428,1.3428l5.33-5.33.0029-.0019A.9466.9466,0,0,0,10.6388,7Z"/></symbol><symbol id="spectrum-css-icon-Chevron500"><path d="M12.1328,7.2715l-6.87-6.87a1.03,1.03,0,0,0-1.457,1.457L9.9473,8,3.8057,14.1416a1.03,1.03,0,0,0,1.457,1.457l6.87-6.87A1.03,1.03,0,0,0,12.1328,7.2715Z"/></symbol><symbol id="spectrum-css-icon-Chevron75"><path d="M7.4824,4.4058l-.0014-.001L3.86.7832A.84.84,0,0,0,2.6719,1.9707L5.7012,5,2.6719,8.0293A.84.84,0,0,0,3.86,9.2168L7.481,5.5952l.0014-.001a.84.84,0,0,0,0-1.1884Z"/></symbol><symbol id="spectrum-css-icon-ChevronDownMedium"><path d="M9.99 1.01A1 1 0 008.283.303L5 3.586 1.717.303A1 1 0 10.303 1.717l3.99 3.98a1 1 0 001.414 0l3.99-3.98a.997.997 0 00.293-.707z"/></symbol><symbol id="spectrum-css-icon-ChevronDownSmall"><path d="M4 5.5a.747.747 0 00.53-.22c.607-.577 1.97-2.038 3.24-3.24A.75.75 0 106.71.98L4 3.69 1.29.98A.75.75 0 10.23 2.04l3.24 3.24A.747.747 0 004 5.5z"/></symbol><symbol id="spectrum-css-icon-ChevronLeftLarge"><path d="M9.605 13.843L3.55 8l6.056-5.84A1.248 1.248 0 107.876.363L.882 7.1a1.243 1.243 0 00.003 1.797l6.988 6.742a1.248 1.248 0 101.732-1.796z"/></symbol><symbol id="spectrum-css-icon-ChevronLeftMedium"><path d="M5.697 8.283L2.414 5l3.283-3.283A1 1 0 104.283.303l-3.98 3.99a1 1 0 000 1.414l3.98 3.99a1 1 0 101.414-1.414z"/></symbol><symbol id="spectrum-css-icon-ChevronRightLarge"><path d="M11.5 8a1.241 1.241 0 00-.386-.897L4.128.36a1.248 1.248 0 10-1.733 1.797L8.45 8l-6.058 5.84a1.248 1.248 0 101.733 1.797L11.117 8.9A1.245 1.245 0 0011.5 8z"/></symbol><symbol id="spectrum-css-icon-ChevronRightMedium"><path d="M5.99 5a.997.997 0 00-.293-.707L1.717.303A1 1 0 10.303 1.717L3.586 5 .303 8.283a1 1 0 101.414 1.414l3.98-3.99A.997.997 0 005.99 5z"/></symbol><symbol id="spectrum-css-icon-ChevronRightSmall"><path d="M5.5 4a.747.747 0 00-.22-.53C4.703 2.862 3.242 1.5 2.04.23A.75.75 0 10.98 1.29L3.69 4 .98 6.71a.75.75 0 101.06 1.06l3.24-3.24A.747.747 0 005.5 4z"/></symbol><symbol id="spectrum-css-icon-ChevronUpSmall"><path d="M4 .5a.747.747 0 00-.53.22C2.862 1.297 1.5 2.758.23 3.96a.75.75 0 101.06 1.06L4 2.31l2.71 2.71a.75.75 0 101.06-1.06L4.53.72A.747.747 0 004 .5z"/></symbol><symbol id="spectrum-css-icon-CornerTriangle"><path d="M4.74.01a.25.25 0 00-.177.073l-4.48 4.48a.25.25 0 00.177.427h4.48a.25.25 0 00.25-.25V.26a.25.25 0 00-.25-.25z"/></symbol><symbol id="spectrum-css-icon-CornerTriangle100"><path d="M4.7625,0a.2484.2484,0,0,0-.177.073l-4.5,4.5A.25.25,0,0,0,.2625,5h4.5a.25.25,0,0,0,.25-.25V.25A.25.25,0,0,0,4.7625,0Z"/></symbol><symbol id="spectrum-css-icon-CornerTriangle200"><path d="M5.719.37a.2813.2813,0,0,0-.2.082L.452,5.519A.281.281,0,0,0,.652,6H5.719A.281.281,0,0,0,6,5.719H6V.652A.281.281,0,0,0,5.72.37Z"/></symbol><symbol id="spectrum-css-icon-CornerTriangle300"><path d="M6.683.67A.315.315,0,0,0,6.46.763l-5.7,5.7a.316.316,0,0,0,.224.54h5.7A.316.316,0,0,0,7,6.687V.986A.316.316,0,0,0,6.684.67Z"/></symbol><symbol id="spectrum-css-icon-CornerTriangle75"><path d="M4.78.558a.2221.2221,0,0,0-.157.065l-4,4a.2221.2221,0,0,0,.157.379h4a.222.222,0,0,0,.222-.222h0v-4A.222.222,0,0,0,4.78.558Z"/></symbol><symbol id="spectrum-css-icon-Cross100"><path d="M5.2376,4,7.6943,1.5435A.8752.8752,0,1,0,6.4561.3062L4,2.7625,1.5435.3062A.8749.8749,0,0,0,.3062,1.5435L2.7625,4,.3062,6.4565A.8749.8749,0,1,0,1.5435,7.6938L4,5.2375,6.4561,7.6938A.8752.8752,0,1,0,7.6943,6.4565Z"/></symbol><symbol id="spectrum-css-icon-Cross200"><path d="M6.2894,5,9.2119,2.0776A.9115.9115,0,0,0,7.9229.7886L5,3.711,2.0776.7886a.9115.9115,0,0,0-1.289,1.289L3.7111,5,.7886,7.9224a.9115.9115,0,1,0,1.289,1.289L5,6.289,7.9229,9.2114a.9115.9115,0,0,0,1.289-1.289Z"/></symbol><symbol id="spectrum-css-icon-Cross300"><path d="M7.3436,6l3.3957-3.3957A.95.95,0,0,0,9.3955,1.2617L6,4.657,2.6045,1.2617A.95.95,0,0,0,1.2617,2.6045L4.657,6,1.2617,9.3955a.95.95,0,0,0,1.3428,1.3438L6,7.3436l3.3953,3.3957a.95.95,0,0,0,1.3438-1.3438Z"/></symbol><symbol id="spectrum-css-icon-Cross500"><path d="M8.4568,7l4.5393-4.5391a1.03,1.03,0,0,0-1.457-1.457L7,5.543,2.46,1.0039a1.03,1.03,0,0,0-1.457,1.457L5.5427,7,1.0034,11.5391a1.03,1.03,0,1,0,1.457,1.457L7,8.457l4.5393,4.5391a1.03,1.03,0,0,0,1.457-1.457Z"/></symbol><symbol id="spectrum-css-icon-Cross75"><path d="M5.1881,4l2.14-2.14A.84.84,0,1,0,6.1406.6724L4,2.8124,1.86.6724A.84.84,0,0,0,.6724,1.86L2.8124,4,.6724,6.14A.84.84,0,1,0,1.86,7.3276L4,5.1876l2.14,2.14A.84.84,0,1,0,7.3281,6.14Z"/></symbol><symbol id="spectrum-css-icon-CrossLarge"><path d="M11.697 10.283L7.414 6l4.283-4.283A1 1 0 1010.283.303L6 4.586 1.717.303A1 1 0 10.303 1.717L4.586 6 .303 10.283a1 1 0 101.414 1.414L6 7.414l4.283 4.283a1 1 0 101.414-1.414z"/></symbol><symbol id="spectrum-css-icon-CrossMedium"><path d="M7.77 6.71L5.06 4l2.71-2.71A.75.75 0 106.71.23L4 2.94 1.29.23A.75.75 0 10.23 1.29L2.94 4 .23 6.71a.75.75 0 101.06 1.06L4 5.06l2.71 2.71a.75.75 0 101.06-1.06z"/></symbol><symbol id="spectrum-css-icon-CrossSmall"><path d="M7.317 6.433L4.884 4l2.433-2.433a.625.625 0 10-.884-.884L4 3.116 1.567.683a.625.625 0 10-.884.884L3.116 4 .683 6.433a.625.625 0 10.884.884L4 4.884l2.433 2.433a.625.625 0 00.884-.884z"/></symbol><symbol id="spectrum-css-icon-Dash100"><path d="M8.5,6h-7a1,1,0,0,1,0-2h7a1,1,0,0,1,0,2Z"/></symbol><symbol id="spectrum-css-icon-Dash200"><path d="M10.0215,7.0415H1.979a1.0415,1.0415,0,1,1,0-2.083h8.0425a1.0415,1.0415,0,0,1,0,2.083Z"/></symbol><symbol id="spectrum-css-icon-Dash300"><path d="M10.61,7.085H1.39a1.085,1.085,0,0,1,0-2.17H10.61a1.085,1.085,0,0,1,0,2.17Z"/></symbol><symbol id="spectrum-css-icon-Dash50"><path d="M6.6338,4.9214H1.3662a.9214.9214,0,0,1,0-1.8428H6.6338a.9214.9214,0,1,1,0,1.8428Z"/></symbol><symbol id="spectrum-css-icon-Dash500"><path d="M14.03,9.1777H1.9688a1.1777,1.1777,0,1,1,0-2.3554H14.03a1.1777,1.1777,0,0,1,0,2.3554Z"/></symbol><symbol id="spectrum-css-icon-Dash75"><path d="M6.99,4.96H1.01a.96.96,0,0,1,0-1.92H6.99a.96.96,0,0,1,0,1.92Z"/></symbol><symbol id="spectrum-css-icon-DashSmall"><path d="M8 4H2a1 1 0 000 2h6a1 1 0 000-2z"/></symbol><symbol id="spectrum-css-icon-DoubleGripper"><path d="M15.49 3H.51a.5.5 0 100 1h14.98a.5.5 0 100-1zM.51 1h14.98a.5.5 0 000-1H.51a.5.5 0 000 1z"/></symbol><symbol id="spectrum-css-icon-DoubleGripperNew"><path d="M15.45,1.05H.55a.5.5,0,0,1,0-1h14.9a.5.5,0,0,1,0,1Zm.5,2.4a.5.5,0,0,0-.5-.5H.55a.5.5,0,0,0,0,1h14.9A.5.5,0,0,0,15.95,3.45Z"/></symbol><symbol id="spectrum-css-icon-FolderBreadcrumb"><path d="M16.5 4l-7.166.004-1.652-1.7A1 1 0 006.965 2H2a1 1 0 00-1 1v11.5a.5.5 0 00.5.5h15a.5.5 0 00.5-.5v-10a.5.5 0 00-.5-.5zM2 3h4.965l1.943 2H2zm10.354 5.854l-3 3a.5.5 0 01-.707 0l-3-3a.5.5 0 01.707-.707L9 10.793l2.646-2.646a.5.5 0 01.707.707z"/></symbol><symbol id="spectrum-css-icon-HelpMedium"><path d="M9 1a8 8 0 108 8 8 8 0 00-8-8zm1.3 12.3a1.222 1.222 0 01-.3.9 1.223 1.223 0 01-.9.3 1.2 1.2 0 010-2.4c.8 0 1.3.5 1.2 1.2zm.1-4.5c-.4.4-.8.8-.8 1.2a1.135 1.135 0 00.3.8v.1a.098.098 0 01-.096.1H8.4a.229.229 0 01-.2-.1 1.666 1.666 0 01-.4-1.1 2.772 2.772 0 011-1.7 2.772 2.772 0 001-1.7c0-.5-.4-1.1-1.4-1.1a5.018 5.018 0 00-2 .4h-.2V4.3c0-.1 0-.2.1-.2a6.183 6.183 0 012.4-.5c1.9 0 3.1 1.1 3.1 2.7a3.704 3.704 0 01-1.4 2.5z"/></symbol><symbol id="spectrum-css-icon-HelpSmall"><path d="M7 .778A6.222 6.222 0 1013.222 7 6.222 6.222 0 007 .778zm.018 10.452a1.046 1.046 0 11-.08-2.091q.04-.002.08 0a1.019 1.019 0 011.087.946q.003.046.002.092a1.004 1.004 0 01-1.09 1.053zm1.387-4.985l-.078.078c-.307.322-.655.687-.655.913a1.078 1.078 0 00.14.525l.056.108-.044.167a.24.24 0 01-.221.147H6.56a.338.338 0 01-.252-.091 1.6 1.6 0 01-.329-.982 2.378 2.378 0 01.864-1.61c.078-.086.156-.164.224-.234.245-.252.395-.416.395-.59 0-.119 0-.483-.695-.483a2.3 2.3 0 00-1.229.357.233.233 0 01-.254-.008l-.092-.066-.022-.175V3.174a.342.342 0 01.156-.319A3.216 3.216 0 017 2.425a1.985 1.985 0 012.14 2.051 2.385 2.385 0 01-.735 1.769z"/></symbol><symbol id="spectrum-css-icon-InfoMedium"><path d="M9 1a8 8 0 108 8 8 8 0 00-8-8zm-.15 2.15a1.359 1.359 0 011.431 1.283q.004.064.001.129A1.332 1.332 0 018.85 5.994a1.353 1.353 0 01-1.432-1.433 1.359 1.359 0 011.304-1.412q.064-.002.128.001zM11 13.5a.5.5 0 01-.5.5h-3a.5.5 0 01-.5-.5v-1a.5.5 0 01.5-.5H8V9h-.5a.5.5 0 01-.5-.5v-1a.5.5 0 01.5-.5h2a.5.5 0 01.5.5V12h.5a.5.5 0 01.5.5z"/></symbol><symbol id="spectrum-css-icon-InfoSmall"><path d="M7 .778A6.222 6.222 0 1013.222 7 6.222 6.222 0 007 .778zM6.883 2.45a1.057 1.057 0 011.113.998q.003.05.001.1a1.036 1.036 0 01-1.114 1.114A1.052 1.052 0 015.77 3.547 1.057 1.057 0 016.784 2.45q.05-.002.1.001zm1.673 8.05a.389.389 0 01-.39.389H5.834a.389.389 0 01-.389-.389v-.778a.389.389 0 01.39-.389h.388V7h-.389a.389.389 0 01-.389-.389v-.778a.389.389 0 01.39-.389h1.555a.389.389 0 01.389.39v3.5h.389a.389.389 0 01.389.388z"/></symbol><symbol id="spectrum-css-icon-Magnifier"><path d="M15.77 14.71l-4.534-4.535a6.014 6.014 0 10-1.06 1.06l4.533 4.535a.75.75 0 101.061-1.06zM6.5 11A4.5 4.5 0 1111 6.5 4.505 4.505 0 016.5 11z"/></symbol><symbol id="spectrum-css-icon-More"><path d="M9 7.1A1.9 1.9 0 117.1 9 1.9 1.9 0 019 7.1zm6 0A1.9 1.9 0 1113.1 9 1.9 1.9 0 0115 7.1zm-12 0A1.9 1.9 0 111.1 9 1.9 1.9 0 013 7.1z"/></symbol><symbol id="spectrum-css-icon-SingleGripper"><path d="M23,2H1A1,1,0,0,1,1,0H23a1,1,0,0,1,0,2Z"/></symbol><symbol id="spectrum-css-icon-SkipLeft"><path d="M8.697 8.283L5.414 5l3.283-3.283A1 1 0 107.283.303l-3.99 3.99a1 1 0 000 1.414l3.99 3.99a1 1 0 101.414-1.414zM1 .01a1 1 0 00-1 1v7.98a1 1 0 002 0V1.01a1 1 0 00-1-1z"/></symbol><symbol id="spectrum-css-icon-SkipRight"><path d="M8 .01a1 1 0 00-1 1v7.98a1 1 0 102 0V1.01a1 1 0 00-1-1zM6 5a.997.997 0 00-.293-.707L1.717.303A1 1 0 10.303 1.717L3.586 5 .303 8.283a1 1 0 101.414 1.414l3.99-3.99A.997.997 0 006 5z"/></symbol><symbol id="spectrum-css-icon-Star"><path d="M9.241.3l2.161 5.715 6.106.289a.255.255 0 01.147.454l-4.77 3.823 1.612 5.9a.255.255 0 01-.386.28L9.002 13.4l-5.11 3.358a.255.255 0 01-.386-.28l1.612-5.9-4.77-3.821A.255.255 0 01.495 6.3l6.107-.285L8.763.3a.255.255 0 01.478 0z"/></symbol><symbol id="spectrum-css-icon-StarOutline"><path d="M9.031 2.541l1.777 4.753 5.11.241-3.987 3.2 1.336 4.913-4.266-2.782-4.282 2.808 1.352-4.937-3.987-3.2 5.1-.245zM9.042.412a.369.369 0 00-.349.239L6.486 6.326l-6.1.293a.375.375 0 00-.217.667l4.762 3.821L3.318 17a.376.376 0 00.362.475.371.371 0 00.2-.063l5.121-3.351 5.095 3.324a.371.371 0 00.2.062.376.376 0 00.363-.475l-1.595-5.866 4.767-3.826a.375.375 0 00-.217-.667l-6.1-.287L9.393.655a.369.369 0 00-.351-.243z"/></symbol><symbol id="spectrum-css-icon-SuccessMedium"><path d="M9 1a8 8 0 108 8 8 8 0 00-8-8zm5.333 4.54l-6.324 8.13a.6.6 0 01-.437.23h-.037a.6.6 0 01-.425-.176l-3.893-3.9a.6.6 0 010-.849l.663-.663a.6.6 0 01.848 0L7.4 10.991l5.256-6.754a.6.6 0 01.843-.1l.728.566a.6.6 0 01.106.837z"/></symbol><symbol id="spectrum-css-icon-SuccessSmall"><path d="M7 .778A6.222 6.222 0 1013.222 7 6.222 6.222 0 007 .778zm4.148 3.53l-4.919 6.324a.467.467 0 01-.34.18h-.028a.467.467 0 01-.331-.138L2.502 7.641a.467.467 0 010-.66l.516-.516a.467.467 0 01.66 0l2.078 2.084 4.088-5.254a.467.467 0 01.655-.078l.566.44a.467.467 0 01.083.652z"/></symbol><symbol id="spectrum-css-icon-TripleGripper"><path d="M9.49 6H.51a.5.5 0 100 1h8.98a.5.5 0 000-1zM9.49 3H.51a.5.5 0 100 1h8.98a.5.5 0 000-1zM.51 1h8.98a.5.5 0 000-1H.51a.5.5 0 000 1z"/></symbol><symbol id="spectrum-css-icon-TripleGripperNew"><path d="M9.45,1.05H.55a.5.5,0,0,1,0-1h8.9a.5.5,0,0,1,0,1Zm.5,2.45a.5.5,0,0,0-.5-.5H.55a.5.5,0,0,0,0,1h8.9A.5.5,0,0,0,9.95,3.5Zm0,3a.5.5,0,0,0-.5-.5H.55a.5.5,0,0,0,0,1h8.9A.5.5,0,0,0,9.95,6.5Z"/></symbol></svg>